# xmcd CD database file
#
# Track frame offsets:
#	182
#	21775
#	66452
#	83322
#	103997
#	130065
#	153017
#	177390
#	201450
#	221385
#	244482
#	267415
#	290977
#	324630
#
# Disc length: 4607 seconds
#
# Revision: 1
# Processed by: cddbd v1.5.1PL0 Copyright (c) Steve Scherf et al.
# Submitted via: CDex 1.50
#
DISCID=d611fd0e
DTITLE=Various Artist - Malaco Greatest Gospel Hits Vol 1
DYEAR=1989
DGENRE=Gospel
TTITLE0=Jesus Is Mine - The Florida Mass Choir
TTITLE1=Barnyard - The Pilgrim Jubilees
TTITLE2=Thank God For Mama - The Fantastic Violinaires
TTITLE3=Just A Rehearsal - The Gospel Keynotes
TTITLE4=Peace Be Still - Vanessa Bell Armstrong
TTITLE5=I'm Just A Nobody - The Williams Brothers
TTITLE6=Touch Me Lord Jesus - The Angelic Gospel Singers
TTITLE7=Better Than Blessed - Louise "Candy" Davis
TTITLE8=Look At The Blessings - Willie Banks and The Messengers
TTITLE9=Peanut Butter And Jelly - The Truthettes
TTITLE10=When We See Jesus - Keith Pringle
TTITLE11=Saints Hold On - The Sensational Nightingales
TTITLE12=Teddy Bear - The Jackson Southernaires
TTITLE13=Nobody's Child - The Original Soul Stirrers
EXTD=YEAR: 1989
EXTT0=
EXTT1=
EXTT2=
EXTT3=
EXTT4=
EXTT5=
EXTT6=
EXTT7=
EXTT8=
EXTT9=
EXTT10=
EXTT11=
EXTT12=
EXTT13=
PLAYORDER=
